<?xml version="1.0" encoding="UTF-8"?>
<!DOCTYPE svg PUBLIC "-//W3C//DTD SVG 1.1//EN" "http://www.w3.org/Graphics/SVG/1.1/DTD/svg11.dtd">
<svg xmlns="http://www.w3.org/2000/svg" version="1.1" width="192px" height="192px" style="shape-rendering:geometricPrecision; text-rendering:geometricPrecision; image-rendering:optimizeQuality; fill-rule:evenodd; clip-rule:evenodd" xmlns:xlink="http://www.w3.org/1999/xlink">
<g><path style="opacity:0.922" fill="#fefffe" d="M 69.5,39.5 C 82.7682,38.1442 94.1015,42.1442 103.5,51.5C 108.32,47.2541 113.653,43.7541 119.5,41C 136.566,36.2857 149.066,41.7857 157,57.5C 160.815,68.4618 160.148,79.1285 155,89.5C 139.932,110.571 124.099,131.071 107.5,151C 104.084,151.893 100.917,151.393 98,149.5C 94.6667,145.5 91.3333,141.5 88,137.5C 86.1566,128.008 89.6566,125.175 98.5,129C 99.6411,131.308 101.308,133.141 103.5,134.5C 117.924,117.906 131.424,100.573 144,82.5C 150.272,67.4836 145.772,57.1503 130.5,51.5C 120.809,53.6957 113.142,58.8624 107.5,67C 101.463,69.1539 97.1297,67.1539 94.5,61C 77.4322,46.3512 65.7655,49.8512 59.5,71.5C 61.35,76.0977 61.6833,80.7643 60.5,85.5C 53.4227,89.6054 49.256,87.6054 48,79.5C 45.1642,60.5649 52.3309,47.2316 69.5,39.5 Z"/></g>
<g><path style="opacity:0.941" fill="#fefffe" d="M 83.5,79.5 C 86.6492,79.2114 89.6492,79.7114 92.5,81C 97.1667,85.6667 101.833,90.3333 106.5,95C 110.619,95.1432 114.619,95.8099 118.5,97C 119.954,100.493 119.621,103.826 117.5,107C 111.833,107.667 106.167,107.667 100.5,107C 96.7012,104.203 93.2012,101.036 90,97.5C 85.5735,110.182 80.7402,122.682 75.5,135C 72.0838,135.893 68.9172,135.393 66,133.5C 63.654,125.115 61.154,116.782 58.5,108.5C 50.5207,107.668 42.5207,107.168 34.5,107C 33.5838,106.626 32.7504,106.126 32,105.5C 31.1067,102.084 31.6067,98.9172 33.5,96C 44.5,95.3333 55.5,95.3333 66.5,96C 67.4162,96.3742 68.2496,96.8742 69,97.5C 70,100.833 71,104.167 72,107.5C 75.7344,98.1313 79.5677,88.798 83.5,79.5 Z"/></g>
</svg>
