<?xml version="1.0" encoding="UTF-8"?>
<!DOCTYPE svg PUBLIC "-//W3C//DTD SVG 1.1//EN" "http://www.w3.org/Graphics/SVG/1.1/DTD/svg11.dtd">
<svg xmlns="http://www.w3.org/2000/svg" version="1.1" width="512px" height="512px" style="shape-rendering:geometricPrecision; text-rendering:geometricPrecision; image-rendering:optimizeQuality; fill-rule:evenodd; clip-rule:evenodd" xmlns:xlink="http://www.w3.org/1999/xlink">
<g><path style="opacity:0.945" fill="#000000" d="M 233.5,-0.5 C 248.167,-0.5 262.833,-0.5 277.5,-0.5C 363.028,10.1574 427.528,52.4907 471,126.5C 502.004,186.202 508.67,248.535 491,313.5C 467.952,386.712 421.452,439.046 351.5,470.5C 354.133,480.367 356.133,490.367 357.5,500.5C 357.825,505.522 355.825,509.188 351.5,511.5C 348.5,511.5 345.5,511.5 342.5,511.5C 317.373,503.07 292.04,494.903 266.5,487C 259.642,484.451 257.142,479.617 259,472.5C 260.167,470.667 261.333,468.833 262.5,467C 281.167,450.333 299.833,433.667 318.5,417C 321.228,414.608 324.228,412.608 327.5,411C 332.247,410.138 336.08,411.638 339,415.5C 342.299,426.325 344.966,437.325 347,448.5C 431.185,406.709 475.352,338.543 479.5,244C 476.436,159.167 439.103,94.5002 367.5,50C 294.2,10.2028 220.533,9.53618 146.5,48C 72.8982,91.9815 34.2315,157.148 30.5,243.5C 32.2145,311.082 57.8812,367.582 107.5,413C 128.365,430.523 151.531,444.356 177,454.5C 196.5,392.667 216,330.833 235.5,269C 230.597,264.03 227.097,258.196 225,251.5C 224.419,244.404 224.752,237.404 226,230.5C 198.305,203.139 170.972,175.472 144,147.5C 141.374,139.821 143.874,134.654 151.5,132C 154.685,131.612 157.685,132.279 160.5,134C 187.5,161 214.5,188 241.5,215C 256.286,210.465 269.119,213.632 280,224.5C 290.36,241.546 288.193,256.713 273.5,270C 267.956,273.348 261.956,275.182 255.5,275.5C 235.514,341.294 215.014,406.961 194,472.5C 191.788,476.276 188.455,478.276 184,478.5C 111.544,455.378 59.8771,409.045 29,339.5C -2.70064,256.477 5.63269,177.81 54,103.5C 98.6275,42.9256 158.461,8.25896 233.5,-0.5 Z M 253.5,234.5 C 262.524,235.024 266.024,239.691 264,248.5C 260.235,253.667 255.401,254.833 249.5,252C 243.98,244.583 245.313,238.749 253.5,234.5 Z M 322.5,442.5 C 323.117,442.611 323.617,442.944 324,443.5C 327.194,457.465 329.86,471.465 332,485.5C 318.011,481.059 304.177,476.226 290.5,471C 301.361,461.635 312.028,452.135 322.5,442.5 Z"/></g>
<g><path style="opacity:0.91" fill="#000000" d="M 253.5,39.5 C 260.302,39.6396 264.469,42.9729 266,49.5C 266.876,58.2296 266.542,66.8963 265,75.5C 259.105,83.0899 252.771,83.4232 246,76.5C 244.447,67.2284 244.114,57.895 245,48.5C 246.015,43.6543 248.849,40.6543 253.5,39.5 Z"/></g>
<g><path style="opacity:0.911" fill="#000000" d="M 59.5,233.5 C 68.9146,233.083 78.2479,233.583 87.5,235C 93.082,239.739 93.9154,245.239 90,251.5C 87.9576,253.604 85.4576,254.771 82.5,255C 73.7797,255.839 65.113,255.505 56.5,254C 50.6601,249.476 49.4935,243.976 53,237.5C 55.0129,235.752 57.1795,234.418 59.5,233.5 Z"/></g>
<g><path style="opacity:0.914" fill="#000000" d="M 426.5,233.5 C 435.915,233.083 445.248,233.583 454.5,235C 459.22,238.298 460.72,242.798 459,248.5C 457.132,252.521 453.965,254.687 449.5,255C 441.103,255.87 432.77,255.537 424.5,254C 420.198,252.065 418.198,248.732 418.5,244C 418.739,238.6 421.406,235.1 426.5,233.5 Z"/></g>
</svg>
